<svg width="816" height="376" xmlns="http://www.w3.org/2000/svg" xmlns:xlink="http://www.w3.org/1999/xlink" xml:space="preserve" overflow="hidden"><defs><clipPath id="clip0"><rect x="232" y="132" width="816" height="376"/></clipPath><clipPath id="clip1"><rect x="232" y="133" width="816" height="375"/></clipPath><clipPath id="clip2"><rect x="232" y="133" width="816" height="376"/></clipPath><clipPath id="clip3"><rect x="232" y="133" width="816" height="376"/></clipPath><clipPath id="clip4"><rect x="232" y="133" width="816" height="375"/></clipPath><clipPath id="clip5"><rect x="687" y="253" width="99" height="99"/></clipPath><clipPath id="clip6"><rect x="687" y="253" width="99" height="99"/></clipPath><clipPath id="clip7"><rect x="687" y="253" width="99" height="99"/></clipPath><clipPath id="clip8"><rect x="890" y="255" width="99" height="100"/></clipPath><clipPath id="clip9"><rect x="890" y="255" width="99" height="100"/></clipPath><clipPath id="clip10"><rect x="890" y="255" width="99" height="100"/></clipPath><clipPath id="clip11"><rect x="290" y="373" width="100" height="99"/></clipPath><clipPath id="clip12"><rect x="290" y="373" width="100" height="99"/></clipPath><clipPath id="clip13"><rect x="290" y="373" width="100" height="99"/></clipPath><clipPath id="clip14"><rect x="290" y="253" width="100" height="99"/></clipPath><clipPath id="clip15"><rect x="290" y="253" width="100" height="99"/></clipPath><clipPath id="clip16"><rect x="290" y="253" width="100" height="99"/></clipPath><clipPath id="clip17"><rect x="290" y="133" width="100" height="100"/></clipPath><clipPath id="clip18"><rect x="290" y="133" width="100" height="100"/></clipPath><clipPath id="clip19"><rect x="290" y="133" width="100" height="100"/></clipPath><clipPath id="clip20"><rect x="462" y="237" width="99" height="100"/></clipPath><clipPath id="clip21"><rect x="462" y="237" width="99" height="100"/></clipPath><clipPath id="clip22"><rect x="462" y="237" width="99" height="100"/></clipPath><clipPath id="clip23"><rect x="504" y="269" width="100" height="99"/></clipPath><clipPath id="clip24"><rect x="504" y="269" width="100" height="99"/></clipPath><clipPath id="clip25"><rect x="504" y="269" width="100" height="99"/></clipPath></defs><g clip-path="url(#clip0)" transform="translate(-232 -132)"><g clip-path="url(#clip1)"><g clip-path="url(#clip2)"><g clip-path="url(#clip3)"><g clip-path="url(#clip4)"><g clip-path="url(#clip5)"><g clip-path="url(#clip6)"><g clip-path="url(#clip7)"><path d="M673.849 338.291C673.849 342.82 660.998 346.492 645.146 346.492 629.293 346.492 616.442 342.82 616.442 338.291 616.442 333.762 629.293 330.09 645.146 330.09 660.998 330.09 673.849 333.762 673.849 338.291Z" fill="#000000" fill-rule="nonzero" fill-opacity="1" transform="matrix(1 0 0 1.0013 91.2161 -66.8175)"/><path d="M665.648 358.794C664.418 358.794 663.598 357.974 663.598 356.744 663.598 355.514 664.418 354.693 665.648 354.693 666.878 354.693 667.698 355.514 667.698 356.744 667.698 357.974 666.878 358.794 665.648 358.794ZM645.146 350.593C629.359 350.593 616.442 346.903 616.442 342.392L616.442 358.794C616.442 363.305 629.359 366.995 645.146 366.995 660.933 366.995 673.849 363.305 673.849 358.794L673.849 342.392C673.849 346.903 660.933 350.593 645.146 350.593Z" fill="#000000" fill-rule="nonzero" fill-opacity="1" transform="matrix(1 0 0 1.0013 91.2161 -66.8175)"/><path d="M665.648 379.296C664.418 379.296 663.598 378.476 663.598 377.246 663.598 376.016 664.418 375.196 665.648 375.196 666.878 375.196 667.698 376.016 667.698 377.246 667.698 378.476 666.878 379.296 665.648 379.296ZM645.146 371.095C629.359 371.095 616.442 367.405 616.442 362.894L616.442 379.296C616.442 383.807 629.359 387.497 645.146 387.497 660.933 387.497 673.849 383.807 673.849 379.296L673.849 362.894C673.849 367.405 660.933 371.095 645.146 371.095Z" fill="#000000" fill-rule="nonzero" fill-opacity="1" transform="matrix(1 0 0 1.0013 91.2161 -66.8175)"/><path d="M665.648 399.799C664.418 399.799 663.598 398.979 663.598 397.749 663.598 396.519 664.418 395.698 665.648 395.698 666.878 395.698 667.698 396.519 667.698 397.749 667.698 398.979 666.878 399.799 665.648 399.799ZM645.146 391.598C629.359 391.598 616.442 387.908 616.442 383.397L616.442 399.799C616.442 404.31 629.359 408 645.146 408 660.933 408 673.849 404.31 673.849 399.799L673.849 383.397C673.849 387.908 660.933 391.598 645.146 391.598Z" fill="#000000" fill-rule="nonzero" fill-opacity="1" transform="matrix(1 0 0 1.0013 91.2161 -66.8175)"/></g></g></g><g clip-path="url(#clip8)"><g clip-path="url(#clip9)"><g clip-path="url(#clip10)"><path d="M850.588 363.92 858.953 372.285C861.01 369.954 862.24 367.017 862.472 363.92Z" fill="#000000" fill-rule="nonzero" fill-opacity="1" transform="matrix(1 0 0 1.0013 91.2161 -66.8175)"/><path d="M847.095 363.315 847.095 348.594C839.188 349.137 833.215 355.989 833.762 363.896 834.309 371.804 841.157 377.774 849.064 377.23 852.187 377.015 855.153 375.786 857.511 373.73Z" fill="#000000" fill-rule="nonzero" fill-opacity="1" transform="matrix(1 0 0 1.0013 91.2161 -66.8175)"/><path d="M849.146 361.869 862.472 361.869C861.953 354.744 856.274 349.085 849.146 348.594Z" fill="#000000" fill-rule="nonzero" fill-opacity="1" transform="matrix(1 0 0 1.0013 91.2161 -66.8175)"/><path d="M876.824 344.442 876.824 381.347 819.417 381.347 819.417 344.442ZM885.025 383.397 882.975 383.397 882.975 341.367 885.025 341.367C886.16 341.367 887.075 340.449 887.075 339.317 887.075 338.184 886.16 337.266 885.025 337.266L850.171 337.266 850.171 335.216C850.171 334.084 849.255 333.166 848.121 333.166 846.986 333.166 846.07 334.084 846.07 335.216L846.07 337.266 811.216 337.266C810.082 337.266 809.166 338.184 809.166 339.317 809.166 340.449 810.082 341.367 811.216 341.367L813.266 341.367 813.266 383.397 811.216 383.397C810.082 383.397 809.166 384.315 809.166 385.447 809.166 386.58 810.082 387.497 811.216 387.497L842.523 387.497 826.736 403.284C825.937 404.094 825.944 405.4 826.75 406.201 827.563 407.002 828.869 406.995 829.668 406.186L846.07 389.784 846.07 408C846.07 409.132 846.986 410.05 848.121 410.05 849.255 410.05 850.171 409.132 850.171 408L850.171 389.753 866.573 406.155C867.372 406.956 868.671 406.956 869.471 406.155 870.277 405.354 870.277 404.055 869.471 403.254L853.718 387.497 885.025 387.497C886.16 387.497 887.075 386.58 887.075 385.447 887.075 384.315 886.16 383.397 885.025 383.397Z" fill="#000000" fill-rule="nonzero" fill-opacity="1" transform="matrix(1 0 0 1.0013 91.2161 -66.8175)"/></g></g></g><g clip-path="url(#clip11)"><g clip-path="url(#clip12)"><g clip-path="url(#clip13)"><path d="M229.184 477.367 280.543 477.367 280.543 472.241C280.543 469.986 278.697 468.141 276.442 468.141L245.688 468.141 234.412 460.657C233.694 460.247 232.977 459.94 232.157 459.94L212.884 459.94C210.629 459.94 208.784 461.785 208.784 464.04L208.784 514.271C208.784 514.476 222.008 482.185 222.008 482.185 223.238 479.315 226.006 477.367 229.184 477.367Z" fill="#000000" fill-rule="nonzero" fill-opacity="1" transform="matrix(1 0 0 1.0013 91.2161 -66.8175)"/><path d="M288.744 485.568C288.744 483.415 287.206 481.672 285.053 481.467L229.184 481.467C227.646 481.467 226.314 482.39 225.698 483.723L211.859 517.347 274.392 517.347 288.334 487.413C288.641 486.798 288.744 486.183 288.744 485.568Z" fill="#000000" fill-rule="nonzero" fill-opacity="1" transform="matrix(1 0 0 1.0013 91.2161 -66.8175)"/></g></g></g><g clip-path="url(#clip14)"><g clip-path="url(#clip15)"><g clip-path="url(#clip16)"><path d="M229.184 357.769 280.543 357.769 280.543 352.643C280.543 350.388 278.697 348.543 276.442 348.543L245.688 348.543 234.412 341.059C233.694 340.649 232.977 340.342 232.157 340.342L212.884 340.342C210.629 340.342 208.784 342.187 208.784 344.442L208.784 394.673C208.784 394.878 222.008 362.587 222.008 362.587 223.238 359.717 226.006 357.769 229.184 357.769Z" fill="#000000" fill-rule="nonzero" fill-opacity="1" transform="matrix(1 0 0 1.0013 91.2161 -66.8175)"/><path d="M288.744 365.97C288.744 363.817 287.206 362.074 285.053 361.869L229.184 361.869C227.646 361.869 226.314 362.792 225.698 364.125L211.859 397.749 274.392 397.749 288.334 367.815C288.641 367.2 288.744 366.585 288.744 365.97Z" fill="#000000" fill-rule="nonzero" fill-opacity="1" transform="matrix(1 0 0 1.0013 91.2161 -66.8175)"/></g></g></g><g clip-path="url(#clip17)"><g clip-path="url(#clip18)"><g clip-path="url(#clip19)"><path d="M229.184 238.171 280.543 238.171 280.543 233.045C280.543 230.79 278.697 228.945 276.442 228.945L245.688 228.945 234.412 221.461C233.694 221.051 232.977 220.744 232.157 220.744L212.884 220.744C210.629 220.744 208.784 222.589 208.784 224.844L208.784 275.075C208.784 275.28 222.008 242.989 222.008 242.989 223.238 240.119 226.006 238.171 229.184 238.171Z" fill="#000000" fill-rule="nonzero" fill-opacity="1" transform="matrix(1 0 0 1.0013 91.2161 -66.8175)"/><path d="M288.744 246.372C288.744 244.219 287.206 242.476 285.053 242.271L229.184 242.271C227.646 242.271 226.314 243.194 225.698 244.527L211.859 278.151 274.392 278.151 288.334 248.217C288.641 247.602 288.744 246.987 288.744 246.372Z" fill="#000000" fill-rule="nonzero" fill-opacity="1" transform="matrix(1 0 0 1.0013 91.2161 -66.8175)"/></g></g></g><g clip-path="url(#clip20)"><g clip-path="url(#clip21)"><g clip-path="url(#clip22)"><path d="M431.885 342.358C427.58 342.358 424.197 338.872 424.197 334.669 424.197 330.466 427.682 326.981 431.885 326.981 436.191 326.981 439.574 330.466 439.574 334.669 439.574 338.872 436.088 342.358 431.885 342.358ZM449.21 329.851C448.8 328.416 448.287 327.083 447.57 325.853L449.21 321.035 445.52 317.345 440.701 318.985C439.471 318.267 438.139 317.755 436.704 317.345L434.448 312.834 429.323 312.834 427.067 317.345C425.632 317.755 424.299 318.267 423.069 318.985L418.251 317.345 414.561 321.035 416.201 325.853C415.483 327.083 414.971 328.416 414.561 329.851L410.05 332.107 410.05 337.232 414.561 339.487C414.971 340.923 415.483 342.255 416.201 343.485L414.561 348.303 418.149 351.891 422.967 350.251C424.197 350.969 425.53 351.481 426.965 351.891L429.22 356.402 434.346 356.402 436.601 351.891C438.036 351.481 439.369 350.969 440.599 350.251L445.417 351.891 449.108 348.303 447.467 343.485C448.185 342.255 448.8 340.82 449.21 339.487L453.721 337.232 453.721 332.107 449.21 329.851Z" fill="#000000" fill-rule="nonzero" fill-opacity="1" transform="matrix(1 0 0 1.0013 91.2161 -66.8175)"/><path d="M408.718 379.672C404.412 379.672 401.029 376.187 401.029 371.984 401.029 367.678 404.515 364.295 408.718 364.295 413.023 364.295 416.406 367.781 416.406 371.984 416.406 376.187 413.023 379.672 408.718 379.672L408.718 379.672ZM424.402 363.168 426.042 358.35 422.352 354.659 417.534 356.299C416.304 355.582 414.868 355.069 413.536 354.659L411.28 350.149 406.155 350.149 403.9 354.659C402.464 355.069 401.132 355.582 399.902 356.299L395.083 354.659 391.495 358.247 393.033 363.065C392.316 364.295 391.803 365.731 391.393 367.063L386.882 369.319 386.882 374.444 391.393 376.699C391.803 378.135 392.316 379.467 393.033 380.697L391.495 385.516 395.083 389.103 399.902 387.566C401.132 388.283 402.464 388.796 403.9 389.206L406.155 393.717 411.28 393.717 413.536 389.206C414.971 388.796 416.304 388.283 417.534 387.566L422.352 389.206 425.94 385.516 424.402 380.8C425.12 379.57 425.632 378.237 426.042 376.802L430.553 374.547 430.553 369.421 426.042 367.166C425.632 365.731 425.12 364.398 424.402 363.168Z" fill="#000000" fill-rule="nonzero" fill-opacity="1" transform="matrix(1 0 0 1.0013 91.2161 -66.8175)"/></g></g></g><g clip-path="url(#clip23)"><g clip-path="url(#clip24)"><g clip-path="url(#clip25)"><path d="M462.673 397.065C455.908 397.065 450.372 391.53 450.372 384.764 450.372 377.998 455.908 372.462 462.673 372.462 469.439 372.462 474.975 377.998 474.975 384.764 474.975 391.53 469.439 397.065 462.673 397.065ZM490.352 377.075C489.737 374.82 488.814 372.667 487.686 370.72L490.249 363.031 484.406 357.188 476.718 359.751C474.667 358.623 472.515 357.701 470.259 357.085L466.774 349.91 458.573 349.91 454.985 357.085C452.73 357.701 450.577 358.623 448.629 359.751L440.941 357.188 435.098 363.031 437.66 370.72C436.533 372.77 435.61 374.923 434.995 377.178L427.819 380.663 427.819 388.864 434.995 392.452C435.61 394.708 436.533 396.86 437.66 398.808L435.098 406.496 440.941 412.34 448.629 409.777C450.679 410.905 452.832 411.827 455.087 412.442L458.675 419.618 466.876 419.618 470.464 412.442C472.72 411.827 474.872 410.905 476.82 409.777L484.509 412.34 490.352 406.496 487.789 398.808C488.917 396.758 489.839 394.605 490.454 392.35L497.63 388.762 497.63 380.561 490.352 377.075Z" fill="#000000" fill-rule="nonzero" fill-opacity="1" transform="matrix(1 0 0 1.0013 91.2161 -66.8175)"/></g></g></g><path d="M297.97 366.995 360.652 366.995 360.652 371.095 297.97 371.095ZM358.601 362.894 370.903 369.045 358.601 375.196Z" fill="#FF0000" fill-rule="nonzero" fill-opacity="1" transform="matrix(1 0 0 1.0013 91.2161 -66.8175)"/><path d="M511.879 366.995 574.561 366.995 574.561 371.095 511.879 371.095ZM572.511 362.894 584.812 369.045 572.511 375.196Z" fill="#FF0000" fill-rule="nonzero" fill-opacity="1" transform="matrix(1 0 0 1.0013 91.2161 -66.8175)"/><path d="M704.603 366.995 767.286 366.995 767.286 371.095 704.603 371.095ZM765.236 362.894 777.537 369.045 765.236 375.196Z" fill="#FF0000" fill-rule="nonzero" fill-opacity="1" transform="matrix(1 0 0 1.0013 91.2161 -66.8175)"/><path d="M249.106 279.859 249.106 355.536" stroke="#000000" stroke-width="3.07538" stroke-linecap="butt" stroke-linejoin="miter" stroke-miterlimit="8" stroke-opacity="1" fill="none" fill-rule="evenodd" transform="matrix(1 0 0 1.0013 91.2161 -66.8175)"/><path d="M247.739 398.774 247.739 474.451" stroke="#000000" stroke-width="3.07538" stroke-linecap="butt" stroke-linejoin="miter" stroke-miterlimit="8" stroke-opacity="1" fill="none" fill-rule="evenodd" transform="matrix(1 0 0 1.0013 91.2161 -66.8175)"/><text fill="#000000" fill-opacity="1" font-family="Helvetica,Helvetica_MSFontService,sans-serif" font-style="normal" font-variant="normal" font-weight="400" font-stretch="normal" font-size="36" text-anchor="start" direction="ltr" writing-mode="lr-tb" unicode-bidi="normal" text-decoration="none" transform="matrix(0.683417 0 0 0.684307 259.388 485)">Data collection</text><text fill="#000000" fill-opacity="1" font-family="Helvetica,Helvetica_MSFontService,sans-serif" font-style="normal" font-variant="normal" font-weight="400" font-stretch="normal" font-size="36" text-anchor="start" direction="ltr" writing-mode="lr-tb" unicode-bidi="normal" text-decoration="none" transform="matrix(0.683417 0 0 0.684307 445.987 374)">Data cleaning &amp; </text><text fill="#000000" fill-opacity="1" font-family="Helvetica,Helvetica_MSFontService,sans-serif" font-style="normal" font-variant="normal" font-weight="400" font-stretch="normal" font-size="36" text-anchor="start" direction="ltr" writing-mode="lr-tb" unicode-bidi="normal" text-decoration="none" transform="matrix(0.683417 0 0 0.684307 454.188 403)">transformation</text><text fill="#000000" fill-opacity="1" font-family="Helvetica,Helvetica_MSFontService,sans-serif" font-style="normal" font-variant="normal" font-weight="400" font-stretch="normal" font-size="36" text-anchor="start" direction="ltr" writing-mode="lr-tb" unicode-bidi="normal" text-decoration="none" transform="matrix(0.683417 0 0 0.684307 665.841 380)">Data storage</text><text fill="#000000" fill-opacity="1" font-family="Helvetica,Helvetica_MSFontService,sans-serif" font-style="normal" font-variant="normal" font-weight="400" font-stretch="normal" font-size="36" text-anchor="start" direction="ltr" writing-mode="lr-tb" unicode-bidi="normal" text-decoration="none" transform="matrix(0.683417 0 0 0.684307 854.258 379)">Data analysis &amp; </text><text fill="#000000" fill-opacity="1" font-family="Helvetica,Helvetica_MSFontService,sans-serif" font-style="normal" font-variant="normal" font-weight="400" font-stretch="normal" font-size="36" text-anchor="start" direction="ltr" writing-mode="lr-tb" unicode-bidi="normal" text-decoration="none" transform="matrix(0.683417 0 0 0.684307 872.71 407)">visualization</text></g></g></g></g></g></svg>