<svg width="816" height="376" xmlns="http://www.w3.org/2000/svg" xmlns:xlink="http://www.w3.org/1999/xlink" xml:space="preserve" overflow="hidden"><defs><clipPath id="clip0"><rect x="232" y="172" width="816" height="376"/></clipPath><clipPath id="clip1"><rect x="232" y="173" width="816" height="374"/></clipPath><clipPath id="clip2"><rect x="232" y="173" width="816" height="374"/></clipPath><clipPath id="clip3"><rect x="232" y="173" width="816" height="374"/></clipPath><clipPath id="clip4"><rect x="232" y="173" width="816" height="374"/></clipPath><clipPath id="clip5"><rect x="687" y="293" width="99" height="99"/></clipPath><clipPath id="clip6"><rect x="687" y="293" width="99" height="99"/></clipPath><clipPath id="clip7"><rect x="687" y="293" width="99" height="99"/></clipPath><clipPath id="clip8"><rect x="890" y="295" width="99" height="99"/></clipPath><clipPath id="clip9"><rect x="890" y="295" width="99" height="99"/></clipPath><clipPath id="clip10"><rect x="890" y="295" width="99" height="99"/></clipPath><clipPath id="clip11"><rect x="290" y="412" width="100" height="99"/></clipPath><clipPath id="clip12"><rect x="290" y="412" width="100" height="99"/></clipPath><clipPath id="clip13"><rect x="290" y="412" width="100" height="99"/></clipPath><clipPath id="clip14"><rect x="290" y="293" width="100" height="99"/></clipPath><clipPath id="clip15"><rect x="290" y="293" width="100" height="99"/></clipPath><clipPath id="clip16"><rect x="290" y="293" width="100" height="99"/></clipPath><clipPath id="clip17"><rect x="290" y="173" width="100" height="99"/></clipPath><clipPath id="clip18"><rect x="290" y="173" width="100" height="99"/></clipPath><clipPath id="clip19"><rect x="290" y="173" width="100" height="99"/></clipPath><clipPath id="clip20"><rect x="462" y="277" width="99" height="99"/></clipPath><clipPath id="clip21"><rect x="462" y="277" width="99" height="99"/></clipPath><clipPath id="clip22"><rect x="462" y="277" width="99" height="99"/></clipPath><clipPath id="clip23"><rect x="504" y="308" width="100" height="100"/></clipPath><clipPath id="clip24"><rect x="504" y="308" width="100" height="100"/></clipPath><clipPath id="clip25"><rect x="504" y="308" width="100" height="100"/></clipPath></defs><g clip-path="url(#clip0)" transform="translate(-232 -172)"><g clip-path="url(#clip1)"><g clip-path="url(#clip2)"><g clip-path="url(#clip3)"><g clip-path="url(#clip4)"><g clip-path="url(#clip5)"><g clip-path="url(#clip6)"><g clip-path="url(#clip7)"><path d="M672.927 337.828C672.927 342.351 660.094 346.018 644.263 346.018 628.432 346.018 615.599 342.351 615.599 337.828 615.599 333.306 628.432 329.639 644.263 329.639 660.094 329.639 672.927 333.306 672.927 337.828Z" fill="#0432FF" fill-rule="nonzero" fill-opacity="1" transform="matrix(1.00137 0 0 1 91.2161 -26.2847)"/><path d="M664.737 358.303C663.509 358.303 662.69 357.484 662.69 356.255 662.69 355.027 663.509 354.208 664.737 354.208 665.966 354.208 666.785 355.027 666.785 356.255 666.785 357.484 665.966 358.303 664.737 358.303ZM644.263 350.113C628.497 350.113 615.599 346.428 615.599 341.923L615.599 358.303C615.599 362.807 628.497 366.493 644.263 366.493 660.028 366.493 672.927 362.807 672.927 358.303L672.927 341.923C672.927 346.428 660.028 350.113 644.263 350.113Z" fill="#0432FF" fill-rule="nonzero" fill-opacity="1" transform="matrix(1.00137 0 0 1 91.2161 -26.2847)"/><path d="M664.737 378.777C663.509 378.777 662.69 377.958 662.69 376.73 662.69 375.501 663.509 374.682 664.737 374.682 665.966 374.682 666.785 375.501 666.785 376.73 666.785 377.958 665.966 378.777 664.737 378.777ZM644.263 370.588C628.497 370.588 615.599 366.902 615.599 362.398L615.599 378.777C615.599 383.282 628.497 386.967 644.263 386.967 660.028 386.967 672.927 383.282 672.927 378.777L672.927 362.398C672.927 366.902 660.028 370.588 644.263 370.588Z" fill="#0432FF" fill-rule="nonzero" fill-opacity="1" transform="matrix(1.00137 0 0 1 91.2161 -26.2847)"/><path d="M664.737 399.252C663.509 399.252 662.69 398.433 662.69 397.204 662.69 395.976 663.509 395.157 664.737 395.157 665.966 395.157 666.785 395.976 666.785 397.204 666.785 398.433 665.966 399.252 664.737 399.252ZM644.263 391.062C628.497 391.062 615.599 387.377 615.599 382.872L615.599 399.252C615.599 403.756 628.497 407.442 644.263 407.442 660.028 407.442 672.927 403.756 672.927 399.252L672.927 382.872C672.927 387.377 660.028 391.062 644.263 391.062Z" fill="#0432FF" fill-rule="nonzero" fill-opacity="1" transform="matrix(1.00137 0 0 1 91.2161 -26.2847)"/></g></g></g><g clip-path="url(#clip8)"><g clip-path="url(#clip9)"><g clip-path="url(#clip10)"><path d="M849.424 363.422 857.777 371.775C859.831 369.448 861.06 366.515 861.292 363.422Z" fill="#0432FF" fill-rule="nonzero" fill-opacity="1" transform="matrix(1.00137 0 0 1 91.2161 -26.2847)"/><path d="M845.936 362.818 845.936 348.117C838.04 348.659 832.075 355.501 832.621 363.398 833.167 371.295 840.005 377.257 847.902 376.714 851.021 376.499 853.983 375.272 856.337 373.219Z" fill="#0432FF" fill-rule="nonzero" fill-opacity="1" transform="matrix(1.00137 0 0 1 91.2161 -26.2847)"/><path d="M847.984 361.374 861.292 361.374C860.773 354.259 855.102 348.608 847.984 348.117Z" fill="#0432FF" fill-rule="nonzero" fill-opacity="1" transform="matrix(1.00137 0 0 1 91.2161 -26.2847)"/><path d="M875.624 343.971 875.624 380.825 818.296 380.825 818.296 343.971ZM883.814 382.872 881.766 382.872 881.766 340.9 883.814 340.9C884.947 340.9 885.861 339.983 885.861 338.852 885.861 337.721 884.947 336.805 883.814 336.805L849.007 336.805 849.007 334.757C849.007 333.626 848.093 332.71 846.96 332.71 845.827 332.71 844.912 333.626 844.912 334.757L844.912 336.805 810.106 336.805C808.973 336.805 808.058 337.721 808.058 338.852 808.058 339.983 808.973 340.9 810.106 340.9L812.153 340.9 812.153 382.872 810.106 382.872C808.973 382.872 808.058 383.789 808.058 384.92 808.058 386.051 808.973 386.967 810.106 386.967L841.37 386.967 825.605 402.732C824.807 403.541 824.813 404.845 825.619 405.645 826.431 406.445 827.734 406.438 828.533 405.63L844.912 389.25 844.912 407.442C844.912 408.572 845.827 409.489 846.96 409.489 848.093 409.489 849.007 408.572 849.007 407.442L849.007 389.219 865.387 405.599C866.185 406.399 867.482 406.399 868.281 405.599 869.086 404.799 869.086 403.502 868.281 402.702L852.549 386.967 883.814 386.967C884.947 386.967 885.861 386.051 885.861 384.92 885.861 383.789 884.947 382.872 883.814 382.872Z" fill="#0432FF" fill-rule="nonzero" fill-opacity="1" transform="matrix(1.00137 0 0 1 91.2161 -26.2847)"/></g></g></g><g clip-path="url(#clip11)"><g clip-path="url(#clip12)"><g clip-path="url(#clip13)"><path d="M228.87 476.714 280.159 476.714 280.159 471.595C280.159 469.343 278.316 467.5 276.064 467.5L245.352 467.5 234.091 460.027C233.375 459.617 232.658 459.31 231.839 459.31L212.593 459.31C210.341 459.31 208.498 461.153 208.498 463.405L208.498 513.568C208.498 513.772 221.704 481.525 221.704 481.525 222.933 478.659 225.697 476.714 228.87 476.714Z" fill="#0432FF" fill-rule="nonzero" fill-opacity="1" transform="matrix(1.00137 0 0 1 91.2161 -26.2847)"/><path d="M288.349 484.903C288.349 482.753 286.813 481.013 284.663 480.808L228.87 480.808C227.335 480.808 226.004 481.73 225.39 483.061L211.569 516.639 274.016 516.639 287.939 486.746C288.246 486.132 288.349 485.518 288.349 484.903Z" fill="#0432FF" fill-rule="nonzero" fill-opacity="1" transform="matrix(1.00137 0 0 1 91.2161 -26.2847)"/></g></g></g><g clip-path="url(#clip14)"><g clip-path="url(#clip15)"><g clip-path="url(#clip16)"><path d="M228.87 357.279 280.159 357.279 280.159 352.161C280.159 349.908 278.316 348.066 276.064 348.066L245.352 348.066 234.091 340.593C233.375 340.183 232.658 339.876 231.839 339.876L212.593 339.876C210.341 339.876 208.498 341.719 208.498 343.971L208.498 394.133C208.498 394.338 221.704 362.091 221.704 362.091 222.933 359.224 225.697 357.279 228.87 357.279Z" fill="#0432FF" fill-rule="nonzero" fill-opacity="1" transform="matrix(1.00137 0 0 1 91.2161 -26.2847)"/><path d="M288.349 365.469C288.349 363.319 286.813 361.579 284.663 361.374L228.87 361.374C227.335 361.374 226.004 362.295 225.39 363.626L211.569 397.204 274.016 397.204 287.939 367.312C288.246 366.697 288.349 366.083 288.349 365.469Z" fill="#0432FF" fill-rule="nonzero" fill-opacity="1" transform="matrix(1.00137 0 0 1 91.2161 -26.2847)"/></g></g></g><g clip-path="url(#clip17)"><g clip-path="url(#clip18)"><g clip-path="url(#clip19)"><path d="M228.87 237.845 280.159 237.845 280.159 232.726C280.159 230.474 278.316 228.631 276.064 228.631L245.352 228.631 234.091 221.158C233.375 220.749 232.658 220.442 231.839 220.442L212.593 220.442C210.341 220.442 208.498 222.284 208.498 224.536L208.498 274.699C208.498 274.904 221.704 242.656 221.704 242.656 222.933 239.79 225.697 237.845 228.87 237.845Z" fill="#0432FF" fill-rule="nonzero" fill-opacity="1" transform="matrix(1.00137 0 0 1 91.2161 -26.2847)"/><path d="M288.349 246.035C288.349 243.885 286.813 242.145 284.663 241.94L228.87 241.94C227.335 241.94 226.004 242.861 225.39 244.192L211.569 277.77 274.016 277.77 287.939 247.877C288.246 247.263 288.349 246.649 288.349 246.035Z" fill="#0432FF" fill-rule="nonzero" fill-opacity="1" transform="matrix(1.00137 0 0 1 91.2161 -26.2847)"/></g></g></g><g clip-path="url(#clip20)"><g clip-path="url(#clip21)"><g clip-path="url(#clip22)"><path d="M431.294 341.889C426.995 341.889 423.616 338.409 423.616 334.211 423.616 330.014 427.097 326.533 431.294 326.533 435.594 326.533 438.972 330.014 438.972 334.211 438.972 338.409 435.492 341.889 431.294 341.889ZM448.595 329.4C448.186 327.967 447.674 326.636 446.957 325.407L448.595 320.596 444.91 316.91 440.098 318.548C438.87 317.832 437.539 317.32 436.106 316.91L433.854 312.406 428.735 312.406 426.483 316.91C425.05 317.32 423.719 317.832 422.49 318.548L417.679 316.91 413.993 320.596 415.631 325.407C414.915 326.636 414.403 327.967 413.993 329.4L409.489 331.652 409.489 336.771 413.993 339.023C414.403 340.456 414.915 341.787 415.631 343.015L413.993 347.827 417.576 351.41 422.388 349.772C423.616 350.488 424.947 351 426.38 351.41L428.633 355.914 433.751 355.914 436.003 351.41C437.437 351 438.768 350.488 439.996 349.772L444.807 351.41 448.493 347.827 446.855 343.015C447.572 341.787 448.186 340.354 448.595 339.023L453.1 336.771 453.1 331.652 448.595 329.4Z" fill="#0432FF" fill-rule="nonzero" fill-opacity="1" transform="matrix(1.00137 0 0 1 91.2161 -26.2847)"/><path d="M408.158 379.153C403.859 379.153 400.48 375.672 400.48 371.475 400.48 367.175 403.961 363.797 408.158 363.797 412.458 363.797 415.836 367.278 415.836 371.475 415.836 375.672 412.458 379.153 408.158 379.153L408.158 379.153ZM423.821 362.671 425.459 357.859 421.774 354.174 416.962 355.812C415.734 355.095 414.301 354.583 412.97 354.174L410.718 349.67 405.599 349.67 403.347 354.174C401.914 354.583 400.583 355.095 399.354 355.812L394.543 354.174 390.96 357.757 392.495 362.568C391.779 363.797 391.267 365.23 390.857 366.561L386.353 368.813 386.353 373.932 390.857 376.184C391.267 377.617 391.779 378.948 392.495 380.176L390.96 384.988 394.543 388.571 399.354 387.035C400.583 387.752 401.914 388.264 403.347 388.673L405.599 393.178 410.718 393.178 412.97 388.673C414.403 388.264 415.734 387.752 416.962 387.035L421.774 388.673 425.357 384.988 423.821 380.279C424.538 379.05 425.05 377.72 425.459 376.286L429.964 374.034 429.964 368.915 425.459 366.663C425.05 365.23 424.538 363.899 423.821 362.671Z" fill="#0432FF" fill-rule="nonzero" fill-opacity="1" transform="matrix(1.00137 0 0 1 91.2161 -26.2847)"/></g></g></g><g clip-path="url(#clip23)"><g clip-path="url(#clip24)"><g clip-path="url(#clip25)"><path d="M462.04 396.522C455.284 396.522 449.755 390.994 449.755 384.237 449.755 377.481 455.284 371.953 462.04 371.953 468.797 371.953 474.325 377.481 474.325 384.237 474.325 390.994 468.797 396.522 462.04 396.522ZM489.681 376.559C489.066 374.307 488.145 372.157 487.019 370.212L489.578 362.534 483.743 356.699 476.065 359.258C474.018 358.132 471.868 357.211 469.616 356.597L466.135 349.431 457.945 349.431 454.362 356.597C452.11 357.211 449.96 358.132 448.015 359.258L440.337 356.699 434.502 362.534 437.061 370.212C435.935 372.26 435.014 374.409 434.4 376.662L427.234 380.142 427.234 388.332 434.4 391.915C435.014 394.167 435.935 396.317 437.061 398.262L434.502 405.94 440.337 411.775 448.015 409.216C450.063 410.342 452.212 411.263 454.465 411.878L458.048 419.044 466.237 419.044 469.82 411.878C472.073 411.263 474.222 410.342 476.168 409.216L483.845 411.775 489.681 405.94 487.121 398.262C488.247 396.215 489.169 394.065 489.783 391.813L496.949 388.23 496.949 380.04 489.681 376.559Z" fill="#0432FF" fill-rule="nonzero" fill-opacity="1" transform="matrix(1.00137 0 0 1 91.2161 -26.2847)"/></g></g></g><path d="M297.562 366.493 360.158 366.493 360.158 370.588 297.562 370.588ZM358.11 362.398 370.395 368.54 358.11 374.682Z" fill="#00FDFF" fill-rule="nonzero" fill-opacity="1" transform="matrix(1.00137 0 0 1 91.2161 -26.2847)"/><path d="M511.179 366.493 573.775 366.493 573.775 370.588 511.179 370.588ZM571.727 362.398 584.012 368.54 571.727 374.682Z" fill="#00FDFF" fill-rule="nonzero" fill-opacity="1" transform="matrix(1.00137 0 0 1 91.2161 -26.2847)"/><path d="M703.639 366.493 766.236 366.493 766.236 370.588 703.639 370.588ZM764.188 362.398 776.473 368.54 764.188 374.682Z" fill="#00FDFF" fill-rule="nonzero" fill-opacity="1" transform="matrix(1.00137 0 0 1 91.2161 -26.2847)"/><path d="M248.765 279.476 248.765 355.05" stroke="#0432FF" stroke-width="3.07117" stroke-linecap="butt" stroke-linejoin="miter" stroke-miterlimit="8" stroke-opacity="1" fill="none" fill-rule="evenodd" transform="matrix(1.00137 0 0 1 91.2161 -26.2847)"/><path d="M247.4 396.863 247.4 472.436" stroke="#0432FF" stroke-width="3.07117" stroke-linecap="butt" stroke-linejoin="miter" stroke-miterlimit="8" stroke-opacity="1" fill="none" fill-rule="evenodd" transform="matrix(1.00137 0 0 1 91.2161 -26.2847)"/><text fill="#00B0F0" fill-opacity="1" font-family="Helvetica,Helvetica_MSFontService,sans-serif" font-style="normal" font-variant="normal" font-weight="400" font-stretch="normal" font-size="36" text-anchor="start" direction="ltr" writing-mode="lr-tb" unicode-bidi="normal" text-decoration="none" transform="matrix(0.683417 0 0 0.682482 259.388 524)">Data collection</text><text fill="#00B0F0" fill-opacity="1" font-family="Helvetica,Helvetica_MSFontService,sans-serif" font-style="normal" font-variant="normal" font-weight="400" font-stretch="normal" font-size="36" text-anchor="start" direction="ltr" writing-mode="lr-tb" unicode-bidi="normal" text-decoration="none" transform="matrix(0.683417 0 0 0.682482 445.987 413)">Data cleaning &amp; </text><text fill="#00B0F0" fill-opacity="1" font-family="Helvetica,Helvetica_MSFontService,sans-serif" font-style="normal" font-variant="normal" font-weight="400" font-stretch="normal" font-size="36" text-anchor="start" direction="ltr" writing-mode="lr-tb" unicode-bidi="normal" text-decoration="none" transform="matrix(0.683417 0 0 0.682482 454.188 442)">transformation</text><text fill="#00B0F0" fill-opacity="1" font-family="Helvetica,Helvetica_MSFontService,sans-serif" font-style="normal" font-variant="normal" font-weight="400" font-stretch="normal" font-size="36" text-anchor="start" direction="ltr" writing-mode="lr-tb" unicode-bidi="normal" text-decoration="none" transform="matrix(0.683417 0 0 0.682482 665.841 419)">Data storage</text><text fill="#00B0F0" fill-opacity="1" font-family="Helvetica,Helvetica_MSFontService,sans-serif" font-style="normal" font-variant="normal" font-weight="400" font-stretch="normal" font-size="36" text-anchor="start" direction="ltr" writing-mode="lr-tb" unicode-bidi="normal" text-decoration="none" transform="matrix(0.683417 0 0 0.682482 854.258 418)">Data analysis &amp; </text><text fill="#00B0F0" fill-opacity="1" font-family="Helvetica,Helvetica_MSFontService,sans-serif" font-style="normal" font-variant="normal" font-weight="400" font-stretch="normal" font-size="36" text-anchor="start" direction="ltr" writing-mode="lr-tb" unicode-bidi="normal" text-decoration="none" transform="matrix(0.683417 0 0 0.682482 872.71 447)">visualization</text></g></g></g></g></g></svg>